# xmcd CD database file
#
# Track frame offsets:
#	150
#	15600
#	26625
#	44933
#	63908
#	72533
#	78892
#	92692
#	102967
#	115192
#	123523
#	131698
#	142829
#	154668
#	166593
#	187889
#	206939
#	231909
#
# Disc length: 3348 seconds
#
# Revision: 0
# Processed by: cddbd v1.5.2PL0 Copyright (c) Steve Scherf et al.
# Submitted via: CDex 1.70beta2
#
DISCID=f50d1212
DTITLE=Jontef - Bin ich verliebt!
DYEAR=2007
DGENRE=Jazz
TTITLE0=Doine
TTITLE1=Pinchoss' Bulgar
TTITLE2=Dredl a redl
TTITLE3=Zog es mir nokh amol - Libesshmertsn
TTITLE4=Unter a klejn bejmele
TTITLE5=mir träumte wieder
TTITLE6=Schpill mir a lidele
TTITLE7=Du liebst mich nicht - O schwöre nicht
TTITLE8=Crazy Chassene
TTITLE9=In den Küssen - Schöne wirtschaftliche Dame
TTITLE10=Saphire sind die Augen Dein
TTITLE11=Oy mame, bin ikh farlibt - Di mame is gegangen
TTITLE12=A nejr Jontef frejlach
TTITLE13=Mein süßes Lieb
TTITLE14=Afn himl a jarid
TTITLE15=Oifn weg stet a boim
TTITLE16=In a jiddisch stetl
TTITLE17=Rumenie
EXTD=YEAR: 2007
EXTT0=
EXTT1=
EXTT2=
EXTT3=
EXTT4=
EXTT5=
EXTT6=
EXTT7=
EXTT8=
EXTT9=
EXTT10=
EXTT11=
EXTT12=
EXTT13=
EXTT14=
EXTT15=
EXTT16=
EXTT17=
PLAYORDER=
